<svg width="100" height="101" viewBox="0 0 100 101" fill="none" xmlns="http://www.w3.org/2000/svg">
<path fill-rule="evenodd" clip-rule="evenodd" d="M49.8919 12.473C29.2261 12.473 12.473 29.226 12.473 49.8919C12.473 59.8128 16.3339 68.8319 22.6351 75.5288C25.3996 70.1793 30.9822 66.5225 37.419 66.5225H62.3649C68.8017 66.5225 74.3843 70.1793 77.1488 75.5288C83.45 68.8319 87.3109 59.8128 87.3109 49.8919C87.3109 29.226 70.5578 12.473 49.8919 12.473ZM70.4418 81.168C69.5517 77.5341 66.2732 74.8378 62.3649 74.8378H37.419C33.5107 74.8378 30.2322 77.5341 29.3421 81.168C35.2403 85.0512 42.3022 87.3108 49.8919 87.3108C57.4817 87.3108 64.5436 85.0512 70.4418 81.168ZM4.15771 49.8919C4.15771 24.6336 24.6336 4.15766 49.8919 4.15766C75.1503 4.15766 95.6262 24.6336 95.6262 49.8919C95.6262 75.1502 75.1503 95.6261 49.8919 95.6261C24.6336 95.6261 4.15771 75.1502 4.15771 49.8919ZM49.8919 29.1036C43.0033 29.1036 37.419 34.6879 37.419 41.5766C37.419 48.4652 43.0033 54.0495 49.8919 54.0495C56.7806 54.0495 62.3649 48.4652 62.3649 41.5766C62.3649 34.6879 56.7806 29.1036 49.8919 29.1036ZM29.1037 41.5766C29.1037 30.0955 38.4109 20.7883 49.8919 20.7883C61.373 20.7883 70.6802 30.0955 70.6802 41.5766C70.6802 53.0576 61.373 62.3649 49.8919 62.3649C38.4109 62.3649 29.1037 53.0576 29.1037 41.5766Z" fill="black"/>
</svg>
